<svg width="103" height="32" viewBox="0 0 103 32" fill="none" xmlns="http://www.w3.org/2000/svg">
<g clip-path="url(#clip0_3054_190)">
<path d="M26.2256 0H19.3269V32H26.2256V0Z" fill="#202042"/>
<path d="M35.5178 10.9299H28.6191V32H35.5178V10.9299Z" fill="#202042"/>
<path d="M95.3388 21.1272L102.122 10.9299H95.2234L90.7492 17.6556V10.9299H83.8505V32H90.7492V21.1272H95.3388Z" fill="#202042"/>
<path d="M48.0951 31.5427H48.0123L44.2718 10.9299H36.9163L41.5704 32H54.5364L59.1912 10.9299H51.8351L48.0951 31.5427Z" fill="#202042"/>
<path d="M71.7928 31.5427H71.7095L67.9695 10.9299H60.6134L65.2681 32H78.2342L82.8889 10.9299H75.5328L71.7928 31.5427Z" fill="#202042"/>
<path d="M35.5178 8.10352H28.6191V9.47332H35.5178V8.10352Z" fill="#202042"/>
<path d="M6.8987 29.0006L12.4522 32H17.2639V27.1877L6.79193 21.4001V21.2049L17.2639 15.9078V8.37072L6.8987 13.71V0H0V32H6.8987V29.0006Z" fill="#202042"/>
</g>
<defs>
<clipPath id="clip0_3054_190">
<rect width="102.122" height="32" fill="white"/>
</clipPath>
</defs>
</svg>
